<svg id="canvas" height="auto" xmlns="http://www.w3.org/2000/svg" version="1.1" xmlns:xlink="http://www.w3.org/1999/xlink" viewBox="0 0 900 412" width="auto" style="width: auto; height: auto;"><rect width="900" height="412" fill="#ffffff"/><line x1="0" y1="0" x2="47.36842105263158" y2="47.36842105263158" stroke-linecap="square" stroke-width="6" stroke="#ffffff"/><line x1="47.36842105263158" y1="0" x2="94.73684210526316" y2="47.36842105263158" stroke-linecap="square" stroke-width="6" stroke="#f9fcfe"/><line x1="94.73684210526316" y1="0" x2="142.10526315789474" y2="47.36842105263158" stroke-linecap="square" stroke-width="6" stroke="#f3f9fe"/><line x1="142.10526315789474" y1="0" x2="189.47368421052633" y2="47.36842105263158" stroke-linecap="square" stroke-width="6" stroke="#eef6fd"/><line x1="189.47368421052633" y1="0" x2="236.84210526315792" y2="47.36842105263158" stroke-linecap="square" stroke-width="6" stroke="#e8f3fd"/><line x1="236.84210526315792" y1="0" x2="284.2105263157895" y2="47.36842105263158" stroke-linecap="square" stroke-width="6" stroke="#e2f0fc"/><line x1="284.2105263157895" y1="47.36842105263158" x2="331.57894736842104" y2="0" stroke-linecap="square" stroke-width="6" stroke="#dcedfb"/><line x1="331.57894736842104" y1="47.36842105263158" x2="378.9473684210526" y2="0" stroke-linecap="square" stroke-width="6" stroke="#d6eafb"/><line x1="378.9473684210526" y1="0" x2="426.31578947368416" y2="47.36842105263158" stroke-linecap="square" stroke-width="6" stroke="#d0e7fa"/><line x1="426.31578947368416" y1="0" x2="473.6842105263157" y2="47.36842105263158" stroke-linecap="square" stroke-width="6" stroke="#cbe4fa"/><line x1="473.6842105263157" y1="0" x2="521.0526315789473" y2="47.36842105263158" stroke-linecap="square" stroke-width="6" stroke="#c5e1f9"/><line x1="521.0526315789473" y1="0" x2="568.4210526315788" y2="47.36842105263158" stroke-linecap="square" stroke-width="6" stroke="#bfdef8"/><line x1="568.4210526315788" y1="0" x2="615.7894736842104" y2="47.36842105263158" stroke-linecap="square" stroke-width="6" stroke="#b9dbf8"/><line x1="615.7894736842104" y1="47.36842105263158" x2="663.157894736842" y2="0" stroke-linecap="square" stroke-width="6" stroke="#b3d8f7"/><line x1="663.157894736842" y1="47.36842105263158" x2="710.5263157894735" y2="0" stroke-linecap="square" stroke-width="6" stroke="#add5f6"/><line x1="710.5263157894735" y1="0" x2="757.8947368421051" y2="47.36842105263158" stroke-linecap="square" stroke-width="6" stroke="#a8d2f6"/><line x1="757.8947368421051" y1="0" x2="805.2631578947367" y2="47.36842105263158" stroke-linecap="square" stroke-width="6" stroke="#a2cff5"/><line x1="805.2631578947367" y1="47.36842105263158" x2="852.6315789473682" y2="0" stroke-linecap="square" stroke-width="6" stroke="#9cccf5"/><line x1="852.6315789473682" y1="47.36842105263158" x2="899.9999999999998" y2="0" stroke-linecap="square" stroke-width="6" stroke="#96c9f4"/><line x1="899.9999999999998" y1="0" x2="947.3684210526313" y2="47.36842105263158" stroke-linecap="square" stroke-width="6"/><line x1="0" y1="47.36842105263158" x2="47.36842105263158" y2="94.73684210526316" stroke-linecap="square" stroke-width="6" stroke="#ffffff"/><line x1="47.36842105263158" y1="47.36842105263158" x2="94.73684210526316" y2="94.73684210526316" stroke-linecap="square" stroke-width="6" stroke="#f9fcfe"/><line x1="94.73684210526316" y1="47.36842105263158" x2="142.10526315789474" y2="94.73684210526316" stroke-linecap="square" stroke-width="6" stroke="#f3f9fe"/><line x1="142.10526315789474" y1="47.36842105263158" x2="189.47368421052633" y2="94.73684210526316" stroke-linecap="square" stroke-width="6" stroke="#eef6fd"/><line x1="189.47368421052633" y1="94.73684210526316" x2="236.84210526315792" y2="47.36842105263158" stroke-linecap="square" stroke-width="6" stroke="#e8f3fd"/><line x1="236.84210526315792" y1="47.36842105263158" x2="284.2105263157895" y2="94.73684210526316" stroke-linecap="square" stroke-width="6" stroke="#e2f0fc"/><line x1="284.2105263157895" y1="47.36842105263158" x2="331.57894736842104" y2="94.73684210526316" stroke-linecap="square" stroke-width="6" stroke="#dcedfb"/><line x1="331.57894736842104" y1="47.36842105263158" x2="378.9473684210526" y2="94.73684210526316" stroke-linecap="square" stroke-width="6" stroke="#d6eafb"/><line x1="378.9473684210526" y1="47.36842105263158" x2="426.31578947368416" y2="94.73684210526316" stroke-linecap="square" stroke-width="6" stroke="#d0e7fa"/><line x1="426.31578947368416" y1="94.73684210526316" x2="473.6842105263157" y2="47.36842105263158" stroke-linecap="square" stroke-width="6" stroke="#cbe4fa"/><line x1="473.6842105263157" y1="94.73684210526316" x2="521.0526315789473" y2="47.36842105263158" stroke-linecap="square" stroke-width="6" stroke="#c5e1f9"/><line x1="521.0526315789473" y1="47.36842105263158" x2="568.4210526315788" y2="94.73684210526316" stroke-linecap="square" stroke-width="6" stroke="#bfdef8"/><line x1="568.4210526315788" y1="94.73684210526316" x2="615.7894736842104" y2="47.36842105263158" stroke-linecap="square" stroke-width="6" stroke="#b9dbf8"/><line x1="615.7894736842104" y1="94.73684210526316" x2="663.157894736842" y2="47.36842105263158" stroke-linecap="square" stroke-width="6" stroke="#b3d8f7"/><line x1="663.157894736842" y1="47.36842105263158" x2="710.5263157894735" y2="94.73684210526316" stroke-linecap="square" stroke-width="6" stroke="#add5f6"/><line x1="710.5263157894735" y1="94.73684210526316" x2="757.8947368421051" y2="47.36842105263158" stroke-linecap="square" stroke-width="6" stroke="#a8d2f6"/><line x1="757.8947368421051" y1="94.73684210526316" x2="805.2631578947367" y2="47.36842105263158" stroke-linecap="square" stroke-width="6" stroke="#a2cff5"/><line x1="805.2631578947367" y1="47.36842105263158" x2="852.6315789473682" y2="94.73684210526316" stroke-linecap="square" stroke-width="6" stroke="#9cccf5"/><line x1="852.6315789473682" y1="47.36842105263158" x2="899.9999999999998" y2="94.73684210526316" stroke-linecap="square" stroke-width="6" stroke="#96c9f4"/><line x1="899.9999999999998" y1="94.73684210526316" x2="947.3684210526313" y2="47.36842105263158" stroke-linecap="square" stroke-width="6"/><line x1="0" y1="142.10526315789474" x2="47.36842105263158" y2="94.73684210526316" stroke-linecap="square" stroke-width="6" stroke="#ffffff"/><line x1="47.36842105263158" y1="94.73684210526316" x2="94.73684210526316" y2="142.10526315789474" stroke-linecap="square" stroke-width="6" stroke="#f9fcfe"/><line x1="94.73684210526316" y1="94.73684210526316" x2="142.10526315789474" y2="142.10526315789474" stroke-linecap="square" stroke-width="6" stroke="#f3f9fe"/><line x1="142.10526315789474" y1="94.73684210526316" x2="189.47368421052633" y2="142.10526315789474" stroke-linecap="square" stroke-width="6" stroke="#eef6fd"/><line x1="189.47368421052633" y1="142.10526315789474" x2="236.84210526315792" y2="94.73684210526316" stroke-linecap="square" stroke-width="6" stroke="#e8f3fd"/><line x1="236.84210526315792" y1="94.73684210526316" x2="284.2105263157895" y2="142.10526315789474" stroke-linecap="square" stroke-width="6" stroke="#e2f0fc"/><line x1="284.2105263157895" y1="94.73684210526316" x2="331.57894736842104" y2="142.10526315789474" stroke-linecap="square" stroke-width="6" stroke="#dcedfb"/><line x1="331.57894736842104" y1="94.73684210526316" x2="378.9473684210526" y2="142.10526315789474" stroke-linecap="square" stroke-width="6" stroke="#d6eafb"/><line x1="378.9473684210526" y1="142.10526315789474" x2="426.31578947368416" y2="94.73684210526316" stroke-linecap="square" stroke-width="6" stroke="#d0e7fa"/><line x1="426.31578947368416" y1="142.10526315789474" x2="473.6842105263157" y2="94.73684210526316" stroke-linecap="square" stroke-width="6" stroke="#cbe4fa"/><line x1="473.6842105263157" y1="94.73684210526316" x2="521.0526315789473" y2="142.10526315789474" stroke-linecap="square" stroke-width="6" stroke="#c5e1f9"/><line x1="521.0526315789473" y1="94.73684210526316" x2="568.4210526315788" y2="142.10526315789474" stroke-linecap="square" stroke-width="6" stroke="#bfdef8"/><line x1="568.4210526315788" y1="94.73684210526316" x2="615.7894736842104" y2="142.10526315789474" stroke-linecap="square" stroke-width="6" stroke="#b9dbf8"/><line x1="615.7894736842104" y1="142.10526315789474" x2="663.157894736842" y2="94.73684210526316" stroke-linecap="square" stroke-width="6" stroke="#b3d8f7"/><line x1="663.157894736842" y1="94.73684210526316" x2="710.5263157894735" y2="142.10526315789474" stroke-linecap="square" stroke-width="6" stroke="#add5f6"/><line x1="710.5263157894735" y1="94.73684210526316" x2="757.8947368421051" y2="142.10526315789474" stroke-linecap="square" stroke-width="6" stroke="#a8d2f6"/><line x1="757.8947368421051" y1="94.73684210526316" x2="805.2631578947367" y2="142.10526315789474" stroke-linecap="square" stroke-width="6" stroke="#a2cff5"/><line x1="805.2631578947367" y1="142.10526315789474" x2="852.6315789473682" y2="94.73684210526316" stroke-linecap="square" stroke-width="6" stroke="#9cccf5"/><line x1="852.6315789473682" y1="94.73684210526316" x2="899.9999999999998" y2="142.10526315789474" stroke-linecap="square" stroke-width="6" stroke="#96c9f4"/><line x1="899.9999999999998" y1="142.10526315789474" x2="947.3684210526313" y2="94.73684210526316" stroke-linecap="square" stroke-width="6"/><line x1="0" y1="142.10526315789474" x2="47.36842105263158" y2="189.47368421052633" stroke-linecap="square" stroke-width="6" stroke="#ffffff"/><line x1="47.36842105263158" y1="142.10526315789474" x2="94.73684210526316" y2="189.47368421052633" stroke-linecap="square" stroke-width="6" stroke="#f9fcfe"/><line x1="94.73684210526316" y1="189.47368421052633" x2="142.10526315789474" y2="142.10526315789474" stroke-linecap="square" stroke-width="6" stroke="#f3f9fe"/><line x1="142.10526315789474" y1="189.47368421052633" x2="189.47368421052633" y2="142.10526315789474" stroke-linecap="square" stroke-width="6" stroke="#eef6fd"/><line x1="189.47368421052633" y1="189.47368421052633" x2="236.84210526315792" y2="142.10526315789474" stroke-linecap="square" stroke-width="6" stroke="#e8f3fd"/><line x1="236.84210526315792" y1="189.47368421052633" x2="284.2105263157895" y2="142.10526315789474" stroke-linecap="square" stroke-width="6" stroke="#e2f0fc"/><line x1="284.2105263157895" y1="189.47368421052633" x2="331.57894736842104" y2="142.10526315789474" stroke-linecap="square" stroke-width="6" stroke="#dcedfb"/><line x1="331.57894736842104" y1="142.10526315789474" x2="378.9473684210526" y2="189.47368421052633" stroke-linecap="square" stroke-width="6" stroke="#d6eafb"/><line x1="378.9473684210526" y1="189.47368421052633" x2="426.31578947368416" y2="142.10526315789474" stroke-linecap="square" stroke-width="6" stroke="#d0e7fa"/><line x1="426.31578947368416" y1="142.10526315789474" x2="473.6842105263157" y2="189.47368421052633" stroke-linecap="square" stroke-width="6" stroke="#cbe4fa"/><line x1="473.6842105263157" y1="142.10526315789474" x2="521.0526315789473" y2="189.47368421052633" stroke-linecap="square" stroke-width="6" stroke="#c5e1f9"/><line x1="521.0526315789473" y1="142.10526315789474" x2="568.4210526315788" y2="189.47368421052633" stroke-linecap="square" stroke-width="6" stroke="#bfdef8"/><line x1="568.4210526315788" y1="189.47368421052633" x2="615.7894736842104" y2="142.10526315789474" stroke-linecap="square" stroke-width="6" stroke="#b9dbf8"/><line x1="615.7894736842104" y1="142.10526315789474" x2="663.157894736842" y2="189.47368421052633" stroke-linecap="square" stroke-width="6" stroke="#b3d8f7"/><line x1="663.157894736842" y1="189.47368421052633" x2="710.5263157894735" y2="142.10526315789474" stroke-linecap="square" stroke-width="6" stroke="#add5f6"/><line x1="710.5263157894735" y1="189.47368421052633" x2="757.8947368421051" y2="142.10526315789474" stroke-linecap="square" stroke-width="6" stroke="#a8d2f6"/><line x1="757.8947368421051" y1="142.10526315789474" x2="805.2631578947367" y2="189.47368421052633" stroke-linecap="square" stroke-width="6" stroke="#a2cff5"/><line x1="805.2631578947367" y1="189.47368421052633" x2="852.6315789473682" y2="142.10526315789474" stroke-linecap="square" stroke-width="6" stroke="#9cccf5"/><line x1="852.6315789473682" y1="142.10526315789474" x2="899.9999999999998" y2="189.47368421052633" stroke-linecap="square" stroke-width="6" stroke="#96c9f4"/><line x1="899.9999999999998" y1="189.47368421052633" x2="947.3684210526313" y2="142.10526315789474" stroke-linecap="square" stroke-width="6"/><line x1="0" y1="189.47368421052633" x2="47.36842105263158" y2="236.84210526315792" stroke-linecap="square" stroke-width="6" stroke="#ffffff"/><line x1="47.36842105263158" y1="189.47368421052633" x2="94.73684210526316" y2="236.84210526315792" stroke-linecap="square" stroke-width="6" stroke="#f9fcfe"/><line x1="94.73684210526316" y1="189.47368421052633" x2="142.10526315789474" y2="236.84210526315792" stroke-linecap="square" stroke-width="6" stroke="#f3f9fe"/><line x1="142.10526315789474" y1="236.84210526315792" x2="189.47368421052633" y2="189.47368421052633" stroke-linecap="square" stroke-width="6" stroke="#eef6fd"/><line x1="189.47368421052633" y1="189.47368421052633" x2="236.84210526315792" y2="236.84210526315792" stroke-linecap="square" stroke-width="6" stroke="#e8f3fd"/><line x1="236.84210526315792" y1="236.84210526315792" x2="284.2105263157895" y2="189.47368421052633" stroke-linecap="square" stroke-width="6" stroke="#e2f0fc"/><line x1="284.2105263157895" y1="236.84210526315792" x2="331.57894736842104" y2="189.47368421052633" stroke-linecap="square" stroke-width="6" stroke="#dcedfb"/><line x1="331.57894736842104" y1="236.84210526315792" x2="378.9473684210526" y2="189.47368421052633" stroke-linecap="square" stroke-width="6" stroke="#d6eafb"/><line x1="378.9473684210526" y1="189.47368421052633" x2="426.31578947368416" y2="236.84210526315792" stroke-linecap="square" stroke-width="6" stroke="#d0e7fa"/><line x1="426.31578947368416" y1="236.84210526315792" x2="473.6842105263157" y2="189.47368421052633" stroke-linecap="square" stroke-width="6" stroke="#cbe4fa"/><line x1="473.6842105263157" y1="189.47368421052633" x2="521.0526315789473" y2="236.84210526315792" stroke-linecap="square" stroke-width="6" stroke="#c5e1f9"/><line x1="521.0526315789473" y1="236.84210526315792" x2="568.4210526315788" y2="189.47368421052633" stroke-linecap="square" stroke-width="6" stroke="#bfdef8"/><line x1="568.4210526315788" y1="236.84210526315792" x2="615.7894736842104" y2="189.47368421052633" stroke-linecap="square" stroke-width="6" stroke="#b9dbf8"/><line x1="615.7894736842104" y1="189.47368421052633" x2="663.157894736842" y2="236.84210526315792" stroke-linecap="square" stroke-width="6" stroke="#b3d8f7"/><line x1="663.157894736842" y1="189.47368421052633" x2="710.5263157894735" y2="236.84210526315792" stroke-linecap="square" stroke-width="6" stroke="#add5f6"/><line x1="710.5263157894735" y1="236.84210526315792" x2="757.8947368421051" y2="189.47368421052633" stroke-linecap="square" stroke-width="6" stroke="#a8d2f6"/><line x1="757.8947368421051" y1="189.47368421052633" x2="805.2631578947367" y2="236.84210526315792" stroke-linecap="square" stroke-width="6" stroke="#a2cff5"/><line x1="805.2631578947367" y1="189.47368421052633" x2="852.6315789473682" y2="236.84210526315792" stroke-linecap="square" stroke-width="6" stroke="#9cccf5"/><line x1="852.6315789473682" y1="236.84210526315792" x2="899.9999999999998" y2="189.47368421052633" stroke-linecap="square" stroke-width="6" stroke="#96c9f4"/><line x1="899.9999999999998" y1="189.47368421052633" x2="947.3684210526313" y2="236.84210526315792" stroke-linecap="square" stroke-width="6"/><line x1="0" y1="236.84210526315792" x2="47.36842105263158" y2="284.2105263157895" stroke-linecap="square" stroke-width="6" stroke="#ffffff"/><line x1="47.36842105263158" y1="236.84210526315792" x2="94.73684210526316" y2="284.2105263157895" stroke-linecap="square" stroke-width="6" stroke="#f9fcfe"/><line x1="94.73684210526316" y1="284.2105263157895" x2="142.10526315789474" y2="236.84210526315792" stroke-linecap="square" stroke-width="6" stroke="#f3f9fe"/><line x1="142.10526315789474" y1="236.84210526315792" x2="189.47368421052633" y2="284.2105263157895" stroke-linecap="square" stroke-width="6" stroke="#eef6fd"/><line x1="189.47368421052633" y1="284.2105263157895" x2="236.84210526315792" y2="236.84210526315792" stroke-linecap="square" stroke-width="6" stroke="#e8f3fd"/><line x1="236.84210526315792" y1="236.84210526315792" x2="284.2105263157895" y2="284.2105263157895" stroke-linecap="square" stroke-width="6" stroke="#e2f0fc"/><line x1="284.2105263157895" y1="284.2105263157895" x2="331.57894736842104" y2="236.84210526315792" stroke-linecap="square" stroke-width="6" stroke="#dcedfb"/><line x1="331.57894736842104" y1="236.84210526315792" x2="378.9473684210526" y2="284.2105263157895" stroke-linecap="square" stroke-width="6" stroke="#d6eafb"/><line x1="378.9473684210526" y1="236.84210526315792" x2="426.31578947368416" y2="284.2105263157895" stroke-linecap="square" stroke-width="6" stroke="#d0e7fa"/><line x1="426.31578947368416" y1="284.2105263157895" x2="473.6842105263157" y2="236.84210526315792" stroke-linecap="square" stroke-width="6" stroke="#cbe4fa"/><line x1="473.6842105263157" y1="236.84210526315792" x2="521.0526315789473" y2="284.2105263157895" stroke-linecap="square" stroke-width="6" stroke="#c5e1f9"/><line x1="521.0526315789473" y1="284.2105263157895" x2="568.4210526315788" y2="236.84210526315792" stroke-linecap="square" stroke-width="6" stroke="#bfdef8"/><line x1="568.4210526315788" y1="284.2105263157895" x2="615.7894736842104" y2="236.84210526315792" stroke-linecap="square" stroke-width="6" stroke="#b9dbf8"/><line x1="615.7894736842104" y1="236.84210526315792" x2="663.157894736842" y2="284.2105263157895" stroke-linecap="square" stroke-width="6" stroke="#b3d8f7"/><line x1="663.157894736842" y1="236.84210526315792" x2="710.5263157894735" y2="284.2105263157895" stroke-linecap="square" stroke-width="6" stroke="#add5f6"/><line x1="710.5263157894735" y1="284.2105263157895" x2="757.8947368421051" y2="236.84210526315792" stroke-linecap="square" stroke-width="6" stroke="#a8d2f6"/><line x1="757.8947368421051" y1="236.84210526315792" x2="805.2631578947367" y2="284.2105263157895" stroke-linecap="square" stroke-width="6" stroke="#a2cff5"/><line x1="805.2631578947367" y1="284.2105263157895" x2="852.6315789473682" y2="236.84210526315792" stroke-linecap="square" stroke-width="6" stroke="#9cccf5"/><line x1="852.6315789473682" y1="236.84210526315792" x2="899.9999999999998" y2="284.2105263157895" stroke-linecap="square" stroke-width="6" stroke="#96c9f4"/><line x1="899.9999999999998" y1="284.2105263157895" x2="947.3684210526313" y2="236.84210526315792" stroke-linecap="square" stroke-width="6"/><line x1="0" y1="331.57894736842104" x2="47.36842105263158" y2="284.2105263157895" stroke-linecap="square" stroke-width="6" stroke="#ffffff"/><line x1="47.36842105263158" y1="284.2105263157895" x2="94.73684210526316" y2="331.57894736842104" stroke-linecap="square" stroke-width="6" stroke="#f9fcfe"/><line x1="94.73684210526316" y1="284.2105263157895" x2="142.10526315789474" y2="331.57894736842104" stroke-linecap="square" stroke-width="6" stroke="#f3f9fe"/><line x1="142.10526315789474" y1="284.2105263157895" x2="189.47368421052633" y2="331.57894736842104" stroke-linecap="square" stroke-width="6" stroke="#eef6fd"/><line x1="189.47368421052633" y1="284.2105263157895" x2="236.84210526315792" y2="331.57894736842104" stroke-linecap="square" stroke-width="6" stroke="#e8f3fd"/><line x1="236.84210526315792" y1="284.2105263157895" x2="284.2105263157895" y2="331.57894736842104" stroke-linecap="square" stroke-width="6" stroke="#e2f0fc"/><line x1="284.2105263157895" y1="331.57894736842104" x2="331.57894736842104" y2="284.2105263157895" stroke-linecap="square" stroke-width="6" stroke="#dcedfb"/><line x1="331.57894736842104" y1="284.2105263157895" x2="378.9473684210526" y2="331.57894736842104" stroke-linecap="square" stroke-width="6" stroke="#d6eafb"/><line x1="378.9473684210526" y1="284.2105263157895" x2="426.31578947368416" y2="331.57894736842104" stroke-linecap="square" stroke-width="6" stroke="#d0e7fa"/><line x1="426.31578947368416" y1="284.2105263157895" x2="473.6842105263157" y2="331.57894736842104" stroke-linecap="square" stroke-width="6" stroke="#cbe4fa"/><line x1="473.6842105263157" y1="284.2105263157895" x2="521.0526315789473" y2="331.57894736842104" stroke-linecap="square" stroke-width="6" stroke="#c5e1f9"/><line x1="521.0526315789473" y1="284.2105263157895" x2="568.4210526315788" y2="331.57894736842104" stroke-linecap="square" stroke-width="6" stroke="#bfdef8"/><line x1="568.4210526315788" y1="331.57894736842104" x2="615.7894736842104" y2="284.2105263157895" stroke-linecap="square" stroke-width="6" stroke="#b9dbf8"/><line x1="615.7894736842104" y1="331.57894736842104" x2="663.157894736842" y2="284.2105263157895" stroke-linecap="square" stroke-width="6" stroke="#b3d8f7"/><line x1="663.157894736842" y1="284.2105263157895" x2="710.5263157894735" y2="331.57894736842104" stroke-linecap="square" stroke-width="6" stroke="#add5f6"/><line x1="710.5263157894735" y1="331.57894736842104" x2="757.8947368421051" y2="284.2105263157895" stroke-linecap="square" stroke-width="6" stroke="#a8d2f6"/><line x1="757.8947368421051" y1="331.57894736842104" x2="805.2631578947367" y2="284.2105263157895" stroke-linecap="square" stroke-width="6" stroke="#a2cff5"/><line x1="805.2631578947367" y1="284.2105263157895" x2="852.6315789473682" y2="331.57894736842104" stroke-linecap="square" stroke-width="6" stroke="#9cccf5"/><line x1="852.6315789473682" y1="331.57894736842104" x2="899.9999999999998" y2="284.2105263157895" stroke-linecap="square" stroke-width="6" stroke="#96c9f4"/><line x1="899.9999999999998" y1="331.57894736842104" x2="947.3684210526313" y2="284.2105263157895" stroke-linecap="square" stroke-width="6"/><line x1="0" y1="331.57894736842104" x2="47.36842105263158" y2="378.9473684210526" stroke-linecap="square" stroke-width="6" stroke="#ffffff"/><line x1="47.36842105263158" y1="378.9473684210526" x2="94.73684210526316" y2="331.57894736842104" stroke-linecap="square" stroke-width="6" stroke="#f9fcfe"/><line x1="94.73684210526316" y1="331.57894736842104" x2="142.10526315789474" y2="378.9473684210526" stroke-linecap="square" stroke-width="6" stroke="#f3f9fe"/><line x1="142.10526315789474" y1="331.57894736842104" x2="189.47368421052633" y2="378.9473684210526" stroke-linecap="square" stroke-width="6" stroke="#eef6fd"/><line x1="189.47368421052633" y1="331.57894736842104" x2="236.84210526315792" y2="378.9473684210526" stroke-linecap="square" stroke-width="6" stroke="#e8f3fd"/><line x1="236.84210526315792" y1="331.57894736842104" x2="284.2105263157895" y2="378.9473684210526" stroke-linecap="square" stroke-width="6" stroke="#e2f0fc"/><line x1="284.2105263157895" y1="331.57894736842104" x2="331.57894736842104" y2="378.9473684210526" stroke-linecap="square" stroke-width="6" stroke="#dcedfb"/><line x1="331.57894736842104" y1="331.57894736842104" x2="378.9473684210526" y2="378.9473684210526" stroke-linecap="square" stroke-width="6" stroke="#d6eafb"/><line x1="378.9473684210526" y1="331.57894736842104" x2="426.31578947368416" y2="378.9473684210526" stroke-linecap="square" stroke-width="6" stroke="#d0e7fa"/><line x1="426.31578947368416" y1="331.57894736842104" x2="473.6842105263157" y2="378.9473684210526" stroke-linecap="square" stroke-width="6" stroke="#cbe4fa"/><line x1="473.6842105263157" y1="378.9473684210526" x2="521.0526315789473" y2="331.57894736842104" stroke-linecap="square" stroke-width="6" stroke="#c5e1f9"/><line x1="521.0526315789473" y1="331.57894736842104" x2="568.4210526315788" y2="378.9473684210526" stroke-linecap="square" stroke-width="6" stroke="#bfdef8"/><line x1="568.4210526315788" y1="331.57894736842104" x2="615.7894736842104" y2="378.9473684210526" stroke-linecap="square" stroke-width="6" stroke="#b9dbf8"/><line x1="615.7894736842104" y1="331.57894736842104" x2="663.157894736842" y2="378.9473684210526" stroke-linecap="square" stroke-width="6" stroke="#b3d8f7"/><line x1="663.157894736842" y1="331.57894736842104" x2="710.5263157894735" y2="378.9473684210526" stroke-linecap="square" stroke-width="6" stroke="#add5f6"/><line x1="710.5263157894735" y1="331.57894736842104" x2="757.8947368421051" y2="378.9473684210526" stroke-linecap="square" stroke-width="6" stroke="#a8d2f6"/><line x1="757.8947368421051" y1="331.57894736842104" x2="805.2631578947367" y2="378.9473684210526" stroke-linecap="square" stroke-width="6" stroke="#a2cff5"/><line x1="805.2631578947367" y1="331.57894736842104" x2="852.6315789473682" y2="378.9473684210526" stroke-linecap="square" stroke-width="6" stroke="#9cccf5"/><line x1="852.6315789473682" y1="331.57894736842104" x2="899.9999999999998" y2="378.9473684210526" stroke-linecap="square" stroke-width="6" stroke="#96c9f4"/><line x1="899.9999999999998" y1="331.57894736842104" x2="947.3684210526313" y2="378.9473684210526" stroke-linecap="square" stroke-width="6"/><line x1="0" y1="426.31578947368416" x2="47.36842105263158" y2="378.9473684210526" stroke-linecap="square" stroke-width="6" stroke="#ffffff"/><line x1="47.36842105263158" y1="426.31578947368416" x2="94.73684210526316" y2="378.9473684210526" stroke-linecap="square" stroke-width="6" stroke="#f9fcfe"/><line x1="94.73684210526316" y1="426.31578947368416" x2="142.10526315789474" y2="378.9473684210526" stroke-linecap="square" stroke-width="6" stroke="#f3f9fe"/><line x1="142.10526315789474" y1="378.9473684210526" x2="189.47368421052633" y2="426.31578947368416" stroke-linecap="square" stroke-width="6" stroke="#eef6fd"/><line x1="189.47368421052633" y1="378.9473684210526" x2="236.84210526315792" y2="426.31578947368416" stroke-linecap="square" stroke-width="6" stroke="#e8f3fd"/><line x1="236.84210526315792" y1="426.31578947368416" x2="284.2105263157895" y2="378.9473684210526" stroke-linecap="square" stroke-width="6" stroke="#e2f0fc"/><line x1="284.2105263157895" y1="426.31578947368416" x2="331.57894736842104" y2="378.9473684210526" stroke-linecap="square" stroke-width="6" stroke="#dcedfb"/><line x1="331.57894736842104" y1="426.31578947368416" x2="378.9473684210526" y2="378.9473684210526" stroke-linecap="square" stroke-width="6" stroke="#d6eafb"/><line x1="378.9473684210526" y1="426.31578947368416" x2="426.31578947368416" y2="378.9473684210526" stroke-linecap="square" stroke-width="6" stroke="#d0e7fa"/><line x1="426.31578947368416" y1="426.31578947368416" x2="473.6842105263157" y2="378.9473684210526" stroke-linecap="square" stroke-width="6" stroke="#cbe4fa"/><line x1="473.6842105263157" y1="426.31578947368416" x2="521.0526315789473" y2="378.9473684210526" stroke-linecap="square" stroke-width="6" stroke="#c5e1f9"/><line x1="521.0526315789473" y1="378.9473684210526" x2="568.4210526315788" y2="426.31578947368416" stroke-linecap="square" stroke-width="6" stroke="#bfdef8"/><line x1="568.4210526315788" y1="426.31578947368416" x2="615.7894736842104" y2="378.9473684210526" stroke-linecap="square" stroke-width="6" stroke="#b9dbf8"/><line x1="615.7894736842104" y1="426.31578947368416" x2="663.157894736842" y2="378.9473684210526" stroke-linecap="square" stroke-width="6" stroke="#b3d8f7"/><line x1="663.157894736842" y1="426.31578947368416" x2="710.5263157894735" y2="378.9473684210526" stroke-linecap="square" stroke-width="6" stroke="#add5f6"/><line x1="710.5263157894735" y1="378.9473684210526" x2="757.8947368421051" y2="426.31578947368416" stroke-linecap="square" stroke-width="6" stroke="#a8d2f6"/><line x1="757.8947368421051" y1="426.31578947368416" x2="805.2631578947367" y2="378.9473684210526" stroke-linecap="square" stroke-width="6" stroke="#a2cff5"/><line x1="805.2631578947367" y1="426.31578947368416" x2="852.6315789473682" y2="378.9473684210526" stroke-linecap="square" stroke-width="6" stroke="#9cccf5"/><line x1="852.6315789473682" y1="378.9473684210526" x2="899.9999999999998" y2="426.31578947368416" stroke-linecap="square" stroke-width="6" stroke="#96c9f4"/><line x1="899.9999999999998" y1="426.31578947368416" x2="947.3684210526313" y2="378.9473684210526" stroke-linecap="square" stroke-width="6"/></svg>